<?xml version="1.0" encoding="utf-8"?>
<!-- Generator: Adobe Illustrator 22.0.1, SVG Export Plug-In . SVG Version: 6.00 Build 0)  -->
<svg version="1.1" id="Layer_1" xmlns="http://www.w3.org/2000/svg" xmlns:xlink="http://www.w3.org/1999/xlink" x="0px" y="0px"
	 viewBox="0 0 24 24" style="enable-background:new 0 0 24 24;" xml:space="preserve">
<style type="text/css">
	.st0{fill:#42526E;}
</style>
<g>
	<path class="st0" d="M0.9,8.5l10.9,4.7c0,0,0.1,0,0.2,0s0.2,0,0.3,0l10.9-4.7c0.2-0.1,0.3-0.3,0.3-0.6c0-0.3-0.2-0.5-0.4-0.6
		L12.2,3.2c-0.1,0-0.3,0-0.4,0L0.9,7.4C0.7,7.5,0.5,7.7,0.5,7.9C0.5,8.2,0.7,8.4,0.9,8.5z"/>
	<path class="st0" d="M22.6,14.9L12,19.5L1.4,14.9c-0.3-0.2-0.7,0-0.8,0.3c-0.2,0.3,0,0.7,0.3,0.8L12,20.8l11.1-4.8
		c0.3-0.1,0.5-0.5,0.3-0.8C23.3,14.9,22.9,14.8,22.6,14.9z"/>
	<path class="st0" d="M22.6,12.5L12,17L1.4,12.5c-0.3-0.2-0.7,0-0.8,0.3c-0.2,0.3,0,0.6,0.3,0.8L12,18.4l11.1-4.8
		c0.3-0.1,0.5-0.5,0.3-0.8C23.3,12.5,22.9,12.4,22.6,12.5z"/>
	<path class="st0" d="M22.6,10.1L12,14.6L1.4,10.1c-0.3-0.2-0.7,0-0.8,0.3c-0.2,0.3,0,0.6,0.3,0.8L12,15.9l11.1-4.8
		c0.3-0.1,0.5-0.5,0.3-0.8C23.3,10.1,22.9,9.9,22.6,10.1z"/>
</g>
</svg>
